<?xml version="1.0" encoding="UTF-8" standalone="no"?> <svg width="512" height="512" viewBox="0 0 512 512" fill="none" xmlns="http://www.w3.org/2000/svg">
<path fill-rule="evenodd" clip-rule="evenodd" d="M128 32C74.9807 32 32 74.9807 32 128V384C32 437.019 74.9807 480 128 480H384C437.019 480 480 437.019 480 384V128C480 74.9807 437.019 32 384 32H128ZM178.728 120.979C174.85 110.637 163.321 105.397 152.979 109.275C142.637 113.153 137.397 124.682 141.275 135.024L237.275 391.024C240.202 398.83 247.665 404.002 256.002 404.002C264.338 404.002 271.801 398.83 274.728 391.024L370.728 135.024C374.607 124.682 369.366 113.153 359.024 109.275C348.682 105.397 337.153 110.637 333.275 120.979L256.002 327.041L178.728 120.979Z" fill="black"/>
</svg>
